<svg xmlns="http://www.w3.org/2000/svg" width="1800" height="1800" viewBox="0 0 1800 1800">
<style>
text { font-family: -apple-system, BlinkMacSystemFont, 'Segoe UI', sans-serif; }
.title { font-size: 34px; font-weight: 700; fill: #172033; }
.subtitle { font-size: 17px; fill: #5b6472; }
.panel-title { font-size: 22px; font-weight: 700; fill: #172033; }
.panel-subtitle { font-size: 15px; fill: #667085; }
.axis { font-size: 14px; fill: #667085; }
.legend { font-size: 14px; fill: #344054; }
.note { font-size: 15px; fill: #475467; }
</style>
<rect width="1800" height="1800" fill="#f7f9fc"/>
<text x="48.00" y="58.00" class="title" text-anchor="start">Matrix Calculator Performance Comparison</text>
<text x="48.00" y="88.00" class="subtitle" text-anchor="start">Repository implementation compared with Apple Accelerate on this Mac. Timed regions exclude initialization.</text>
<rect x="48" y="118" width="1704" height="570" rx="8" fill="#ffffff" stroke="#d9e0ea" stroke-width="1"/>
<text x="74.00" y="156.00" class="panel-title" text-anchor="start">Matrix multiplication runtime</text>
<text x="74.00" y="180.00" class="panel-subtitle" text-anchor="start">Lower is better. Accelerate uses BLAS cblas_dgemm; repository versions use matrix_ops.c.</text>
<line x1="130.00" y1="629.00" x2="1722.00" y2="629.00" stroke="#98a2b3" stroke-width="1.2"/>
<line x1="130.00" y1="629.00" x2="130.00" y2="635.00" stroke="#98a2b3" stroke-width="1"/>
<text x="130.00" y="653.00" class="axis" text-anchor="middle">64</text>
<line x1="528.00" y1="629.00" x2="528.00" y2="635.00" stroke="#98a2b3" stroke-width="1"/>
<text x="528.00" y="653.00" class="axis" text-anchor="middle">128</text>
<line x1="926.00" y1="629.00" x2="926.00" y2="635.00" stroke="#98a2b3" stroke-width="1"/>
<text x="926.00" y="653.00" class="axis" text-anchor="middle">256</text>
<line x1="1324.00" y1="629.00" x2="1324.00" y2="635.00" stroke="#98a2b3" stroke-width="1"/>
<text x="1324.00" y="653.00" class="axis" text-anchor="middle">512</text>
<line x1="1722.00" y1="629.00" x2="1722.00" y2="635.00" stroke="#98a2b3" stroke-width="1"/>
<text x="1722.00" y="653.00" class="axis" text-anchor="middle">768</text>
<text x="926.00" y="677.00" class="axis" text-anchor="middle">square matrix size n</text>
<line x1="130.00" y1="629.00" x2="1722.00" y2="629.00" stroke="#e8ecf2" stroke-width="1"/>
<text x="118.00" y="634.00" class="axis" text-anchor="end">0.001</text>
<line x1="130.00" y1="559.00" x2="1722.00" y2="559.00" stroke="#e8ecf2" stroke-width="1"/>
<text x="118.00" y="564.00" class="axis" text-anchor="end">0.01</text>
<line x1="130.00" y1="489.00" x2="1722.00" y2="489.00" stroke="#e8ecf2" stroke-width="1"/>
<text x="118.00" y="494.00" class="axis" text-anchor="end">0.1</text>
<line x1="130.00" y1="419.00" x2="1722.00" y2="419.00" stroke="#e8ecf2" stroke-width="1"/>
<text x="118.00" y="424.00" class="axis" text-anchor="end">1</text>
<line x1="130.00" y1="349.00" x2="1722.00" y2="349.00" stroke="#e8ecf2" stroke-width="1"/>
<text x="118.00" y="354.00" class="axis" text-anchor="end">10</text>
<line x1="130.00" y1="279.00" x2="1722.00" y2="279.00" stroke="#e8ecf2" stroke-width="1"/>
<text x="118.00" y="284.00" class="axis" text-anchor="end">100</text>
<line x1="130.00" y1="209.00" x2="1722.00" y2="209.00" stroke="#e8ecf2" stroke-width="1"/>
<text x="118.00" y="214.00" class="axis" text-anchor="end">1000</text>
<text x="72.00" y="419.00" class="axis" text-anchor="middle" transform="rotate(-90 72.00 419.00)">runtime (ms, log scale)</text>
<path d="M 130.00 451.63 L 528.00 389.06 L 926.00 326.35 L 1324.00 263.31 L 1722.00 226.38" fill="none" stroke="#e5484d" stroke-width="3" stroke-linejoin="round" stroke-linecap="round"/>
<circle cx="130.00" cy="451.63" r="5" fill="#e5484d" stroke="#ffffff" stroke-width="2"/>
<circle cx="528.00" cy="389.06" r="5" fill="#e5484d" stroke="#ffffff" stroke-width="2"/>
<circle cx="926.00" cy="326.35" r="5" fill="#e5484d" stroke="#ffffff" stroke-width="2"/>
<circle cx="1324.00" cy="263.31" r="5" fill="#e5484d" stroke="#ffffff" stroke-width="2"/>
<circle cx="1722.00" cy="226.38" r="5" fill="#e5484d" stroke="#ffffff" stroke-width="2"/>
<path d="M 130.00 451.83 L 528.00 389.28 L 926.00 326.30 L 1324.00 263.46 L 1722.00 226.42" fill="none" stroke="#f59e0b" stroke-width="3" stroke-linejoin="round" stroke-linecap="round"/>
<circle cx="130.00" cy="451.83" r="5" fill="#f59e0b" stroke="#ffffff" stroke-width="2"/>
<circle cx="528.00" cy="389.28" r="5" fill="#f59e0b" stroke="#ffffff" stroke-width="2"/>
<circle cx="926.00" cy="326.30" r="5" fill="#f59e0b" stroke="#ffffff" stroke-width="2"/>
<circle cx="1324.00" cy="263.46" r="5" fill="#f59e0b" stroke="#ffffff" stroke-width="2"/>
<circle cx="1722.00" cy="226.42" r="5" fill="#f59e0b" stroke="#ffffff" stroke-width="2"/>
<path d="M 130.00 529.49 L 528.00 464.57 L 926.00 394.19 L 1324.00 326.91 L 1722.00 297.77" fill="none" stroke="#0f9f8f" stroke-width="3" stroke-linejoin="round" stroke-linecap="round"/>
<circle cx="130.00" cy="529.49" r="5" fill="#0f9f8f" stroke="#ffffff" stroke-width="2"/>
<circle cx="528.00" cy="464.57" r="5" fill="#0f9f8f" stroke="#ffffff" stroke-width="2"/>
<circle cx="926.00" cy="394.19" r="5" fill="#0f9f8f" stroke="#ffffff" stroke-width="2"/>
<circle cx="1324.00" cy="326.91" r="5" fill="#0f9f8f" stroke="#ffffff" stroke-width="2"/>
<circle cx="1722.00" cy="297.77" r="5" fill="#0f9f8f" stroke="#ffffff" stroke-width="2"/>
<path d="M 130.00 542.27 L 528.00 478.96 L 926.00 415.64 L 1324.00 352.26 L 1722.00 315.33" fill="none" stroke="#7c3aed" stroke-width="3" stroke-linejoin="round" stroke-linecap="round"/>
<circle cx="130.00" cy="542.27" r="5" fill="#7c3aed" stroke="#ffffff" stroke-width="2"/>
<circle cx="528.00" cy="478.96" r="5" fill="#7c3aed" stroke="#ffffff" stroke-width="2"/>
<circle cx="926.00" cy="415.64" r="5" fill="#7c3aed" stroke="#ffffff" stroke-width="2"/>
<circle cx="1324.00" cy="352.26" r="5" fill="#7c3aed" stroke="#ffffff" stroke-width="2"/>
<circle cx="1722.00" cy="315.33" r="5" fill="#7c3aed" stroke="#ffffff" stroke-width="2"/>
<path d="M 130.00 620.15 L 528.00 561.46 L 926.00 498.96 L 1324.00 434.25 L 1722.00 403.67" fill="none" stroke="#2563eb" stroke-width="3" stroke-linejoin="round" stroke-linecap="round"/>
<circle cx="130.00" cy="620.15" r="5" fill="#2563eb" stroke="#ffffff" stroke-width="2"/>
<circle cx="528.00" cy="561.46" r="5" fill="#2563eb" stroke="#ffffff" stroke-width="2"/>
<circle cx="926.00" cy="498.96" r="5" fill="#2563eb" stroke="#ffffff" stroke-width="2"/>
<circle cx="1324.00" cy="434.25" r="5" fill="#2563eb" stroke="#ffffff" stroke-width="2"/>
<circle cx="1722.00" cy="403.67" r="5" fill="#2563eb" stroke="#ffffff" stroke-width="2"/>
<line x1="148.00" y1="227.00" x2="172.00" y2="227.00" stroke="#e5484d" stroke-width="3"/>
<circle cx="160.00" cy="227.00" r="4" fill="#e5484d" stroke="#ffffff" stroke-width="2"/>
<text x="181.00" y="231.00" class="legend" text-anchor="start">Original i-j-k</text>
<line x1="333.00" y1="227.00" x2="357.00" y2="227.00" stroke="#f59e0b" stroke-width="3"/>
<circle cx="345.00" cy="227.00" r="4" fill="#f59e0b" stroke="#ffffff" stroke-width="2"/>
<text x="366.00" y="231.00" class="legend" text-anchor="start">Reordered i-k-j</text>
<line x1="518.00" y1="227.00" x2="542.00" y2="227.00" stroke="#0f9f8f" stroke-width="3"/>
<circle cx="530.00" cy="227.00" r="4" fill="#0f9f8f" stroke="#ffffff" stroke-width="2"/>
<text x="551.00" y="231.00" class="legend" text-anchor="start">Blocked</text>
<line x1="703.00" y1="227.00" x2="727.00" y2="227.00" stroke="#7c3aed" stroke-width="3"/>
<circle cx="715.00" cy="227.00" r="4" fill="#7c3aed" stroke="#ffffff" stroke-width="2"/>
<text x="736.00" y="231.00" class="legend" text-anchor="start">Optimized portable C</text>
<line x1="888.00" y1="227.00" x2="912.00" y2="227.00" stroke="#2563eb" stroke-width="3"/>
<circle cx="900.00" cy="227.00" r="4" fill="#2563eb" stroke="#ffffff" stroke-width="2"/>
<text x="921.00" y="231.00" class="legend" text-anchor="start">Accelerate BLAS</text>
<rect x="48" y="730" width="828" height="1000" rx="8" fill="#ffffff" stroke="#d9e0ea" stroke-width="1"/>
<text x="74.00" y="768.00" class="panel-title" text-anchor="start">New operations: Accelerate speedup</text>
<text x="74.00" y="792.00" class="panel-subtitle" text-anchor="start">Custom runtime divided by Accelerate runtime. Above 1x means Accelerate is faster.</text>
<line x1="130.00" y1="1671.00" x2="846.00" y2="1671.00" stroke="#98a2b3" stroke-width="1.2"/>
<line x1="130.00" y1="1671.00" x2="130.00" y2="1677.00" stroke="#98a2b3" stroke-width="1"/>
<text x="130.00" y="1695.00" class="axis" text-anchor="middle">256</text>
<line x1="368.67" y1="1671.00" x2="368.67" y2="1677.00" stroke="#98a2b3" stroke-width="1"/>
<text x="368.67" y="1695.00" class="axis" text-anchor="middle">512</text>
<line x1="607.33" y1="1671.00" x2="607.33" y2="1677.00" stroke="#98a2b3" stroke-width="1"/>
<text x="607.33" y="1695.00" class="axis" text-anchor="middle">1024</text>
<line x1="846.00" y1="1671.00" x2="846.00" y2="1677.00" stroke="#98a2b3" stroke-width="1"/>
<text x="846.00" y="1695.00" class="axis" text-anchor="middle">2048</text>
<text x="488.00" y="1719.00" class="axis" text-anchor="middle">square matrix size n</text>
<line x1="130.00" y1="1671.00" x2="846.00" y2="1671.00" stroke="#e8ecf2" stroke-width="1"/>
<text x="118.00" y="1676.00" class="axis" text-anchor="end">0</text>
<line x1="130.00" y1="1501.00" x2="846.00" y2="1501.00" stroke="#e8ecf2" stroke-width="1"/>
<text x="118.00" y="1506.00" class="axis" text-anchor="end">1</text>
<line x1="130.00" y1="1331.00" x2="846.00" y2="1331.00" stroke="#e8ecf2" stroke-width="1"/>
<text x="118.00" y="1336.00" class="axis" text-anchor="end">2</text>
<line x1="130.00" y1="1161.00" x2="846.00" y2="1161.00" stroke="#e8ecf2" stroke-width="1"/>
<text x="118.00" y="1166.00" class="axis" text-anchor="end">3</text>
<line x1="130.00" y1="991.00" x2="846.00" y2="991.00" stroke="#e8ecf2" stroke-width="1"/>
<text x="118.00" y="996.00" class="axis" text-anchor="end">4</text>
<line x1="130.00" y1="821.00" x2="846.00" y2="821.00" stroke="#e8ecf2" stroke-width="1"/>
<text x="118.00" y="826.00" class="axis" text-anchor="end">5</text>
<text x="72.00" y="1246.00" class="axis" text-anchor="middle" transform="rotate(-90 72.00 1246.00)">Accelerate speedup (x)</text>
<line x1="130.00" y1="1501.00" x2="846.00" y2="1501.00" stroke="#98a2b3" stroke-width="1.5" stroke-dasharray="6 5"/>
<text x="844.00" y="1493.00" class="axis" text-anchor="end">equal speed</text>
<path d="M 130.00 1502.70 L 368.67 1497.60 L 607.33 1499.30 L 846.00 1501.00" fill="none" stroke="#2563eb" stroke-width="3" stroke-linejoin="round" stroke-linecap="round"/>
<circle cx="130.00" cy="1502.70" r="5" fill="#2563eb" stroke="#ffffff" stroke-width="2"/>
<circle cx="368.67" cy="1497.60" r="5" fill="#2563eb" stroke="#ffffff" stroke-width="2"/>
<circle cx="607.33" cy="1499.30" r="5" fill="#2563eb" stroke="#ffffff" stroke-width="2"/>
<circle cx="846.00" cy="1501.00" r="5" fill="#2563eb" stroke="#ffffff" stroke-width="2"/>
<path d="M 130.00 1502.70 L 368.67 1501.00 L 607.33 1499.30 L 846.00 1506.10" fill="none" stroke="#7c3aed" stroke-width="3" stroke-linejoin="round" stroke-linecap="round"/>
<circle cx="130.00" cy="1502.70" r="5" fill="#7c3aed" stroke="#ffffff" stroke-width="2"/>
<circle cx="368.67" cy="1501.00" r="5" fill="#7c3aed" stroke="#ffffff" stroke-width="2"/>
<circle cx="607.33" cy="1499.30" r="5" fill="#7c3aed" stroke="#ffffff" stroke-width="2"/>
<circle cx="846.00" cy="1506.10" r="5" fill="#7c3aed" stroke="#ffffff" stroke-width="2"/>
<path d="M 130.00 1489.10 L 368.67 1495.90 L 607.33 1499.30 L 846.00 1502.70" fill="none" stroke="#059669" stroke-width="3" stroke-linejoin="round" stroke-linecap="round"/>
<circle cx="130.00" cy="1489.10" r="5" fill="#059669" stroke="#ffffff" stroke-width="2"/>
<circle cx="368.67" cy="1495.90" r="5" fill="#059669" stroke="#ffffff" stroke-width="2"/>
<circle cx="607.33" cy="1499.30" r="5" fill="#059669" stroke="#ffffff" stroke-width="2"/>
<circle cx="846.00" cy="1502.70" r="5" fill="#059669" stroke="#ffffff" stroke-width="2"/>
<path d="M 130.00 1142.30 L 368.67 1067.50 L 607.33 962.10 L 846.00 1308.90" fill="none" stroke="#f97316" stroke-width="3" stroke-linejoin="round" stroke-linecap="round"/>
<circle cx="130.00" cy="1142.30" r="5" fill="#f97316" stroke="#ffffff" stroke-width="2"/>
<circle cx="368.67" cy="1067.50" r="5" fill="#f97316" stroke="#ffffff" stroke-width="2"/>
<circle cx="607.33" cy="962.10" r="5" fill="#f97316" stroke="#ffffff" stroke-width="2"/>
<circle cx="846.00" cy="1308.90" r="5" fill="#f97316" stroke="#ffffff" stroke-width="2"/>
<path d="M 130.00 1263.00 L 368.67 1266.40 L 607.33 1266.40 L 846.00 1266.40" fill="none" stroke="#e5484d" stroke-width="3" stroke-linejoin="round" stroke-linecap="round"/>
<circle cx="130.00" cy="1263.00" r="5" fill="#e5484d" stroke="#ffffff" stroke-width="2"/>
<circle cx="368.67" cy="1266.40" r="5" fill="#e5484d" stroke="#ffffff" stroke-width="2"/>
<circle cx="607.33" cy="1266.40" r="5" fill="#e5484d" stroke="#ffffff" stroke-width="2"/>
<circle cx="846.00" cy="1266.40" r="5" fill="#e5484d" stroke="#ffffff" stroke-width="2"/>
<line x1="144.00" y1="837.00" x2="168.00" y2="837.00" stroke="#2563eb" stroke-width="3"/>
<circle cx="156.00" cy="837.00" r="4" fill="#2563eb" stroke="#ffffff" stroke-width="2"/>
<text x="177.00" y="841.00" class="legend" text-anchor="start">Add</text>
<line x1="322.00" y1="837.00" x2="346.00" y2="837.00" stroke="#7c3aed" stroke-width="3"/>
<circle cx="334.00" cy="837.00" r="4" fill="#7c3aed" stroke="#ffffff" stroke-width="2"/>
<text x="355.00" y="841.00" class="legend" text-anchor="start">Subtract</text>
<line x1="144.00" y1="861.00" x2="168.00" y2="861.00" stroke="#059669" stroke-width="3"/>
<circle cx="156.00" cy="861.00" r="4" fill="#059669" stroke="#ffffff" stroke-width="2"/>
<text x="177.00" y="865.00" class="legend" text-anchor="start">Scale</text>
<line x1="322.00" y1="861.00" x2="346.00" y2="861.00" stroke="#f97316" stroke-width="3"/>
<circle cx="334.00" cy="861.00" r="4" fill="#f97316" stroke="#ffffff" stroke-width="2"/>
<text x="355.00" y="865.00" class="legend" text-anchor="start">Transpose</text>
<line x1="144.00" y1="885.00" x2="168.00" y2="885.00" stroke="#e5484d" stroke-width="3"/>
<circle cx="156.00" cy="885.00" r="4" fill="#e5484d" stroke="#ffffff" stroke-width="2"/>
<text x="177.00" y="889.00" class="legend" text-anchor="start">Frobenius norm</text>
<rect x="924" y="730" width="828" height="1000" rx="8" fill="#ffffff" stroke="#d9e0ea" stroke-width="1"/>
<text x="950.00" y="768.00" class="panel-title" text-anchor="start">LU factorization runtime</text>
<text x="950.00" y="792.00" class="panel-subtitle" text-anchor="start">Lower is better. Repository no-pivot LU versus Accelerate LAPACK dgetrf.</text>
<line x1="1006.00" y1="1671.00" x2="1722.00" y2="1671.00" stroke="#98a2b3" stroke-width="1.2"/>
<line x1="1006.00" y1="1671.00" x2="1006.00" y2="1677.00" stroke="#98a2b3" stroke-width="1"/>
<text x="1006.00" y="1695.00" class="axis" text-anchor="middle">32</text>
<line x1="1125.33" y1="1671.00" x2="1125.33" y2="1677.00" stroke="#98a2b3" stroke-width="1"/>
<text x="1125.33" y="1695.00" class="axis" text-anchor="middle">64</text>
<line x1="1244.67" y1="1671.00" x2="1244.67" y2="1677.00" stroke="#98a2b3" stroke-width="1"/>
<text x="1244.67" y="1695.00" class="axis" text-anchor="middle">128</text>
<line x1="1364.00" y1="1671.00" x2="1364.00" y2="1677.00" stroke="#98a2b3" stroke-width="1"/>
<text x="1364.00" y="1695.00" class="axis" text-anchor="middle">256</text>
<line x1="1483.33" y1="1671.00" x2="1483.33" y2="1677.00" stroke="#98a2b3" stroke-width="1"/>
<text x="1483.33" y="1695.00" class="axis" text-anchor="middle">512</text>
<line x1="1602.67" y1="1671.00" x2="1602.67" y2="1677.00" stroke="#98a2b3" stroke-width="1"/>
<text x="1602.67" y="1695.00" class="axis" text-anchor="middle">768</text>
<line x1="1722.00" y1="1671.00" x2="1722.00" y2="1677.00" stroke="#98a2b3" stroke-width="1"/>
<text x="1722.00" y="1695.00" class="axis" text-anchor="middle">1024</text>
<text x="1364.00" y="1719.00" class="axis" text-anchor="middle">square matrix size n</text>
<line x1="1006.00" y1="1671.00" x2="1722.00" y2="1671.00" stroke="#e8ecf2" stroke-width="1"/>
<text x="994.00" y="1676.00" class="axis" text-anchor="end">0.001</text>
<line x1="1006.00" y1="1529.33" x2="1722.00" y2="1529.33" stroke="#e8ecf2" stroke-width="1"/>
<text x="994.00" y="1534.33" class="axis" text-anchor="end">0.01</text>
<line x1="1006.00" y1="1387.67" x2="1722.00" y2="1387.67" stroke="#e8ecf2" stroke-width="1"/>
<text x="994.00" y="1392.67" class="axis" text-anchor="end">0.1</text>
<line x1="1006.00" y1="1246.00" x2="1722.00" y2="1246.00" stroke="#e8ecf2" stroke-width="1"/>
<text x="994.00" y="1251.00" class="axis" text-anchor="end">1</text>
<line x1="1006.00" y1="1104.33" x2="1722.00" y2="1104.33" stroke="#e8ecf2" stroke-width="1"/>
<text x="994.00" y="1109.33" class="axis" text-anchor="end">10</text>
<line x1="1006.00" y1="962.67" x2="1722.00" y2="962.67" stroke="#e8ecf2" stroke-width="1"/>
<text x="994.00" y="967.67" class="axis" text-anchor="end">100</text>
<line x1="1006.00" y1="821.00" x2="1722.00" y2="821.00" stroke="#e8ecf2" stroke-width="1"/>
<text x="994.00" y="826.00" class="axis" text-anchor="end">1000</text>
<text x="948.00" y="1246.00" class="axis" text-anchor="middle" transform="rotate(-90 948.00 1246.00)">runtime (ms, log scale)</text>
<path d="M 1006.00 1454.04 L 1125.33 1336.96 L 1244.67 1190.52 L 1364.00 1116.71 L 1483.33 997.55 L 1602.67 922.79 L 1722.00 868.93" fill="none" stroke="#e5484d" stroke-width="3" stroke-linejoin="round" stroke-linecap="round"/>
<circle cx="1006.00" cy="1454.04" r="5" fill="#e5484d" stroke="#ffffff" stroke-width="2"/>
<circle cx="1125.33" cy="1336.96" r="5" fill="#e5484d" stroke="#ffffff" stroke-width="2"/>
<circle cx="1244.67" cy="1190.52" r="5" fill="#e5484d" stroke="#ffffff" stroke-width="2"/>
<circle cx="1364.00" cy="1116.71" r="5" fill="#e5484d" stroke="#ffffff" stroke-width="2"/>
<circle cx="1483.33" cy="997.55" r="5" fill="#e5484d" stroke="#ffffff" stroke-width="2"/>
<circle cx="1602.67" cy="922.79" r="5" fill="#e5484d" stroke="#ffffff" stroke-width="2"/>
<circle cx="1722.00" cy="868.93" r="5" fill="#e5484d" stroke="#ffffff" stroke-width="2"/>
<path d="M 1006.00 1560.76 L 1125.33 1486.69 L 1244.67 1414.17 L 1364.00 1380.15 L 1483.33 1260.11 L 1602.67 1207.46 L 1722.00 1158.84" fill="none" stroke="#2563eb" stroke-width="3" stroke-linejoin="round" stroke-linecap="round"/>
<circle cx="1006.00" cy="1560.76" r="5" fill="#2563eb" stroke="#ffffff" stroke-width="2"/>
<circle cx="1125.33" cy="1486.69" r="5" fill="#2563eb" stroke="#ffffff" stroke-width="2"/>
<circle cx="1244.67" cy="1414.17" r="5" fill="#2563eb" stroke="#ffffff" stroke-width="2"/>
<circle cx="1364.00" cy="1380.15" r="5" fill="#2563eb" stroke="#ffffff" stroke-width="2"/>
<circle cx="1483.33" cy="1260.11" r="5" fill="#2563eb" stroke="#ffffff" stroke-width="2"/>
<circle cx="1602.67" cy="1207.46" r="5" fill="#2563eb" stroke="#ffffff" stroke-width="2"/>
<circle cx="1722.00" cy="1158.84" r="5" fill="#2563eb" stroke="#ffffff" stroke-width="2"/>
<line x1="1021.00" y1="837.00" x2="1045.00" y2="837.00" stroke="#e5484d" stroke-width="3"/>
<circle cx="1033.00" cy="837.00" r="4" fill="#e5484d" stroke="#ffffff" stroke-width="2"/>
<text x="1054.00" y="841.00" class="legend" text-anchor="start">Repository LU</text>
<line x1="1226.00" y1="837.00" x2="1250.00" y2="837.00" stroke="#2563eb" stroke-width="3"/>
<circle cx="1238.00" cy="837.00" r="4" fill="#2563eb" stroke="#ffffff" stroke-width="2"/>
<text x="1259.00" y="841.00" class="legend" text-anchor="start">Accelerate LAPACK</text>
<text x="1722.00" y="1657.00" class="note" text-anchor="end" font-weight="600">Peak measured LAPACK speedup: 111.3x</text>
</svg>
